# xmcd CD database file
#
# Track frame offsets:
#	150
#	22700
#	45948
#	61077
#	79806
#	104786
#	124326
#	144611
#	167551
#	187032
#	205897
#	224634
#	244926
#	267208
#
# Disc length: 3801 seconds
#
# Revision: 2
# Processed by: cddbd v1.5.2PL0 Copyright (c) Steve Scherf et al.
# Submitted via: CDex 1.70beta2
#
DISCID=cb0ed70e
DTITLE=Lionel Richie - Tuskagee
DYEAR=2012
DGENRE=Jazz
TTITLE0=You are
TTITLE1=Say you say me
TTITLE2=Stuck on you
TTITLE3=Deep river woman
TTITLE4=My love
TTITLE5=Dancing on the ceiling
TTITLE6=Hello
TTITLE7=Sail on
TTITLE8=Endless love
TTITLE9=Just for you
TTITLE10=Lady
TTITLE11=Easy
TTITLE12=All night long
TTITLE13=Angel
EXTD=YEAR: 2012
EXTT0=
EXTT1=
EXTT2=
EXTT3=
EXTT4=
EXTT5=
EXTT6=
EXTT7=
EXTT8=
EXTT9=
EXTT10=
EXTT11=
EXTT12=
EXTT13=
PLAYORDER=
